<svg width="263" height="42" viewBox="0 0 263 42" fill="none" xmlns="http://www.w3.org/2000/svg">
<path d="M150.205 12.9075C151.494 10.4098 153.316 8.29875 155.612 6.54342C158.723 4.154 162.291 2.71572 166.292 2.27495C170.992 1.75686 175.409 2.58426 179.493 4.85768C180.508 5.42217 181.456 6.06399 182.363 6.75994C182.588 6.93006 182.563 7.03058 182.371 7.2007C180.516 8.91737 178.661 10.634 176.823 12.3662C176.607 12.5672 176.49 12.5518 176.257 12.3894C170.867 8.53073 163.007 9.57465 158.989 14.6783C158.282 15.5753 157.708 16.5418 157.309 17.5935C157.275 17.6863 157.209 17.7714 157.159 17.8641C156.086 17.1063 155.005 16.3485 153.94 15.583C152.692 14.6937 151.444 13.8045 150.205 12.9075Z" fill="#E94335"/>
<path d="M157.159 25.1174C157.516 25.852 157.816 26.6175 158.265 27.3057C160.153 30.1823 162.848 32.0304 166.4 32.6877C169.602 33.2831 172.68 32.881 175.55 31.3886C175.65 31.3422 175.75 31.2958 175.841 31.2494C175.891 31.2958 175.933 31.35 175.982 31.3886C178.129 32.9352 180.283 34.4817 182.429 36.0283C181.398 36.9794 180.225 37.7449 178.977 38.4099C175.359 40.3277 171.441 41.1009 167.315 40.8071C162.174 40.4359 157.741 38.5491 154.081 35.1467C152.475 33.6543 151.153 31.9686 150.196 30.0431C151.086 29.409 151.976 28.7827 152.866 28.1486C154.297 27.1356 155.728 26.1304 157.159 25.1174Z" fill="#34A853"/>
<path d="M182.438 36.0284C180.292 34.4819 178.138 32.9353 175.991 31.3888C175.942 31.3501 175.892 31.296 175.85 31.2496C176.59 30.716 177.347 30.1979 177.955 29.5175C178.969 28.3885 179.643 27.1126 179.992 25.682C180.034 25.5042 180.001 25.4423 179.809 25.4501C179.71 25.4578 179.618 25.4501 179.518 25.4501C176.125 25.4501 172.722 25.4423 169.329 25.4578C168.954 25.4578 168.871 25.365 168.879 25.0325C168.896 22.79 168.896 20.5475 168.879 18.305C168.879 18.0189 168.963 17.9416 169.27 17.9416C175.492 17.9493 181.714 17.9493 187.945 17.9416C188.211 17.9416 188.319 18.0035 188.385 18.2664C188.893 20.3929 188.86 22.5271 188.552 24.6768C188.302 26.3935 187.853 28.056 187.163 29.6644C186.14 32.0383 184.634 34.1107 182.654 35.8892C182.579 35.9434 182.505 35.982 182.438 36.0284Z" fill="#4285F3"/>
<path d="M157.158 25.1177C155.727 26.1306 154.297 27.1359 152.866 28.1489C151.976 28.7752 151.086 29.4093 150.196 30.0434C149.505 28.8526 149.056 27.5921 148.69 26.293C147.992 23.7799 147.883 21.2281 148.266 18.6686C148.565 16.658 149.189 14.7249 150.196 12.9154C151.444 13.8047 152.683 14.7017 153.931 15.5909C155.004 16.3565 156.077 17.1143 157.15 17.8721C156.967 18.6995 156.709 19.5114 156.626 20.362C156.476 21.9086 156.634 23.4165 157.108 24.9011C157.141 24.963 157.15 25.0403 157.158 25.1177Z" fill="#FABB06"/>
<g clip-path="url(#clip0_685_783)">
<path d="M114.065 0.733948H74.1113C74.1049 0.733948 74.0996 0.739264 74.0996 0.745822V41.2542C74.0996 41.2607 74.1049 41.266 74.1113 41.266H114.065C114.071 41.266 114.076 41.2607 114.076 41.2542V0.745822C114.076 0.739264 114.071 0.733948 114.065 0.733948Z" fill="#1877F2"/>
<path d="M101.865 26.8581L102.755 21H97.2112V17.2001C97.2112 15.601 97.9842 14.0335 100.467 14.0335H102.989V9.04618C102.989 9.04618 100.701 8.65036 98.5152 8.65036C93.9475 8.65036 90.9648 11.4528 90.9648 16.5351V21H85.8896V26.8581H90.9648V41.266H97.2112V26.8581H101.865Z" fill="white"/>
</g>
<g clip-path="url(#clip1_685_783)">
<path d="M262.988 0.751434H223.376C223.369 0.751434 223.364 0.756746 223.364 0.763299V41.2368C223.364 41.2433 223.369 41.2486 223.376 41.2486H262.988C262.995 41.2486 263 41.2433 263 41.2368V0.763299C263 0.756746 262.995 0.751434 262.988 0.751434Z" fill="#7289DA"/>
<path d="M250.15 31.7571L248.524 29.7797C251.698 28.9096 252.936 26.695 252.936 26.695C248.911 30.5707 237.918 30.7289 233.66 26.695C233.66 26.695 234.744 28.7515 237.996 29.7797L236.215 31.7571C230.796 31.678 228.706 27.9605 228.706 27.9605C228.706 19.7345 232.267 13.1695 232.267 13.1695C235.905 10.5594 239.234 10.5594 239.234 10.5594L239.466 10.8757C234.977 12.1413 233.041 14.1978 233.041 14.1978C238.305 10.5594 249.143 10.8757 253.401 14.1978C253.478 14.1187 250.846 11.9831 246.743 10.8757L247.13 10.5594C247.13 10.5594 250.459 10.5594 254.098 13.1695C254.098 13.1695 257.659 19.7345 257.659 27.9605C257.659 27.9605 255.568 31.678 250.15 31.7571Z" fill="white"/>
<path d="M238.537 25.5876C239.948 25.5876 241.092 24.3482 241.092 22.8193C241.092 21.2903 239.948 20.0509 238.537 20.0509C237.126 20.0509 235.982 21.2903 235.982 22.8193C235.982 24.3482 237.126 25.5876 238.537 25.5876Z" fill="#7289DA"/>
<path d="M247.518 25.5876C248.928 25.5876 250.072 24.3482 250.072 22.8193C250.072 21.2903 248.928 20.0509 247.518 20.0509C246.107 20.0509 244.963 21.2903 244.963 22.8193C244.963 24.3482 246.107 25.5876 247.518 25.5876Z" fill="#7289DA"/>
</g>
<rect y="1.18164" width="39.6355" height="39.6355" rx="3" fill="#37AEE2"/>
<path d="M14.6829 32.2008C13.8318 32.2008 13.9092 31.8994 13.6771 31.1458L11.2012 23.2338L30.1573 12.383" fill="#C8DAEA"/>
<path d="M14.6475 32.2007C15.1418 32.2007 15.4244 31.9169 15.7775 31.6331L18.9557 28.5818L15.0006 26.1693" fill="#A9C9DD"/>
<path d="M15.0607 26.0022L25.3341 33.5889C26.3995 34.2786 27.3127 33.8954 27.6171 32.516L31.8026 12.7447C32.1831 11.0588 31.1177 10.2924 29.9762 10.8289L5.54822 20.3314C3.95013 20.9444 3.95013 21.9407 5.24382 22.3238L11.5601 24.3163L26.019 15.0437C26.7039 14.6605 27.3127 14.8138 26.8561 15.3502" fill="#F6FBFE"/>
<defs>
<clipPath id="clip0_685_783">
<rect x="74.0996" y="0.733948" width="39.9769" height="40.5321" rx="6" fill="white"/>
</clipPath>
<clipPath id="clip1_685_783">
<rect x="223.364" y="0.751434" width="39.6355" height="40.4972" rx="4" fill="white"/>
</clipPath>
</defs>
</svg>
